<svg xmlns="http://www.w3.org/2000/svg" viewBox="2 6 20 12.7406">
  <path d="M16.3783,9.7117C15.4646,7.5018 13.2666,6.0037 10.7585,6C7.3979,6.0001 4.6625,8.6163 4.6624,11.8343V11.8363C4.6624,11.8385 4.6625,11.8408 4.6627,11.8429C4.6628,11.8446 4.6629,11.8462 4.6629,11.8477C4.0176,12.0219 3.416,12.3659 2.9386,12.875C2.4057,13.4432 2.104,14.1379 2.0252,14.8506C2.0238,14.8616 2.0224,14.8726 2.0209,14.8836C2.0179,14.9061 2.0148,14.9285 2.0128,14.9514C2.0123,14.9597 2.012,14.9681 2.0118,14.9764C2.0115,14.9847 2.0113,14.9931 2.0107,15.0014L2.0099,15.0126C2.005,15.0834 2,15.1545 2,15.2268C2,15.2334 2.0005,15.2399 2.001,15.2464C2.0016,15.2529 2.0021,15.2594 2.0021,15.2661C2.0025,15.3048 2.0053,15.3433 2.008,15.3818C2.0085,15.3882 2.0089,15.3946 2.0094,15.4009C2.0217,15.6386 2.0587,15.8697 2.1181,16.0929C2.1223,16.1085 2.1263,16.1241 2.1302,16.1398C2.14,16.1782 2.1497,16.2166 2.1618,16.2546C2.1679,16.2731 2.1747,16.2911 2.1815,16.3091C2.1864,16.3219 2.1912,16.3347 2.1958,16.3476C2.2236,16.4273 2.2529,16.5064 2.2868,16.5843C2.2894,16.5899 2.2922,16.5954 2.2949,16.6009C2.2986,16.6083 2.3022,16.6156 2.3056,16.6231C2.3476,16.7164 2.3933,16.8084 2.444,16.8986L2.4471,16.9045C2.5993,17.1735 2.7879,17.428 3.018,17.6585C3.034,17.6744 3.0513,17.6891 3.0697,17.7024C3.735,18.3432 4.6554,18.7406 5.6702,18.7406H17.227C19.8566,18.7406 21.9997,16.6928 22,14.1745C22,11.6559 19.8568,9.6063 17.227,9.6063C16.968,9.6067 16.7138,9.652 16.4596,9.6973C16.4325,9.7021 16.4054,9.7069 16.3783,9.7117ZM6.6961,13.3703L6.6625,11.8073C6.6807,9.7485 8.452,8.0405 10.6793,8.0007L10.7565,8.0008C12.4322,8.0027 13.9164,8.9916 14.5301,10.4759L15.1436,11.9597L16.725,11.6814L16.8102,11.6663C17.0772,11.6188 17.1701,11.6064 17.2307,11.6063C18.7721,11.6063 20,12.7812 20,14.1745C19.9998,15.5668 18.7724,16.7406 17.227,16.7406H5.6702C5.2028,16.7406 4.7716,16.5648 4.457,16.2619L4.3692,16.1773C4.3038,16.1026 4.2432,16.0172 4.1898,15.9231C4.1603,15.8683 4.1452,15.8373 4.1294,15.8022L4.1036,15.7469C4.1052,15.7486 4.1,15.7339 4.0919,15.7109C4.0895,15.7041 4.0869,15.6965 4.084,15.6884L4.0674,15.6423C4.0611,15.6176 4.061,15.6172 4.0517,15.5817L4.0517,15.5817C4.0264,15.4866 4.0117,15.3935 4.0067,15.2976L4.003,15.2402L4.0015,15.218C4.0013,15.2147 4.0012,15.2125 4.0012,15.2125C4.0011,15.2125 4.0013,15.2201 4.0019,15.242L4.001,15.2123L4.005,15.1534L4.0059,15.141L4.007,15.1206L4.0101,15.0961C4.047,14.7634 4.1767,14.4784 4.3974,14.2432C4.6056,14.0211 4.8759,13.8618 5.1843,13.7785L6.6961,13.3703Z" fill="#000000"/>
</svg>