<svg xmlns="http://www.w3.org/2000/svg" viewBox="0 0 20 19.0709">
  <path d="M5,15L5,19.026C4.6706,19.0557 4.3371,19.0709 4,19.0709C3.6629,19.0709 3.3294,19.0557 3,19.026L3,15C3.3266,15.0467 3.6605,15.0709 4,15.0709C4.3395,15.0709 4.6734,15.0467 5,15ZM9,15L9,19.026C8.6706,19.0557 8.3371,19.0709 8,19.0709C7.6629,19.0709 7.3294,19.0557 7,19.026L7,15C7.3266,15.0467 7.6605,15.0709 8,15.0709C8.3395,15.0709 8.6734,15.0467 9,15ZM13,15L13,19.026C12.6706,19.0557 12.3371,19.0709 12,19.0709C11.6629,19.0709 11.3294,19.0557 11,19.026L11,15C11.3266,15.0467 11.6605,15.0709 12,15.0709C12.3395,15.0709 12.6734,15.0467 13,15ZM17,15L17,19.026C16.6706,19.0557 16.3371,19.0709 16,19.0709C15.6629,19.0709 15.3294,19.0557 15,19.026L15,15C15.3266,15.0467 15.6605,15.0709 16,15.0709C16.3395,15.0709 16.6734,15.0467 17,15ZM4.6625,5.8073L4.6961,7.3703L3.1843,7.7785C2.8759,7.8618 2.6056,8.0211 2.3974,8.2432C2.1767,8.4784 2.047,8.7634 2.0101,9.0961C2.0087,9.1073 2.0077,9.1148 2.007,9.1206C2.0066,9.1267 2.0063,9.1335 2.0059,9.141L2.005,9.1534C2.003,9.1824 2.0017,9.201 2.001,9.2123C2.0013,9.2213 2.0016,9.2312 2.0019,9.242C2.001,9.2084 2.001,9.2084 2.0015,9.218C2.002,9.2265 2.002,9.2265 2.003,9.2402C2.0037,9.2502 2.0037,9.2502 2.0067,9.2976C2.0117,9.3935 2.0264,9.4866 2.0517,9.5817C2.061,9.6172 2.0611,9.6176 2.0674,9.6423C2.0711,9.6525 2.0761,9.6664 2.084,9.6884C2.0963,9.7236 2.1057,9.7492 2.1036,9.7469C2.1087,9.7576 2.1157,9.7727 2.1294,9.8022C2.1452,9.8373 2.1603,9.8683 2.1898,9.9231C2.2432,10.0172 2.3038,10.1026 2.3692,10.1773L2.457,10.2619C2.7716,10.5648 3.2028,10.7406 3.6702,10.7406L15.227,10.7406C16.7724,10.7406 17.9998,9.5668 18,8.1745C18,6.7812 16.7721,5.6063 15.2307,5.6063C15.1701,5.6064 15.0772,5.6188 14.8102,5.6663C14.7677,5.6739 14.7677,5.6739 14.725,5.6814L13.1436,5.9597L12.5301,4.4759C11.9164,2.9916 10.4322,2.0027 8.7565,2.0008L8.6793,2.0007C6.452,2.0405 4.6807,3.7485 4.6625,5.8073ZM8.7585,0C11.2666,0.0037 13.4646,1.5018 14.3783,3.7117C14.6597,3.6622 14.9404,3.6068 15.227,3.6063C17.8568,3.6063 20,5.6559 20,8.1745C19.9997,10.6928 17.8566,12.7406 15.227,12.7406L3.6702,12.7406C2.6554,12.7406 1.735,12.3432 1.0697,11.7024C1.0513,11.6891 1.034,11.6744 1.018,11.6585C0.7879,11.428 0.5993,11.1735 0.4472,10.9045L0.444,10.8986C0.3933,10.8084 0.3476,10.7164 0.3056,10.6231C0.2997,10.61 0.293,10.5975 0.2868,10.5843C0.2529,10.5064 0.2236,10.4273 0.1958,10.3476C0.1847,10.3164 0.1722,10.2861 0.1618,10.2546C0.1448,10.2012 0.1324,10.1469 0.1182,10.0929C0.0587,9.8697 0.0217,9.6386 0.0094,9.4009C0.0063,9.356 0.0026,9.3112 0.0021,9.2661C0.0021,9.2528 0,9.2401 0,9.2268C0,9.1507 0.0055,9.0759 0.0107,9.0014C0.0118,8.9847 0.0118,8.9681 0.0128,8.9514C0.0158,8.9174 0.0211,8.8843 0.0252,8.8506C0.104,8.1379 0.4057,7.4432 0.9386,6.875C1.416,6.3659 2.0176,6.0219 2.6629,5.8477C2.6629,5.8443 2.6624,5.8403 2.6624,5.8363L2.6624,5.8343C2.6625,2.6163 5.3979,0.0001 8.7585,0Z" fill="#000000"/>
</svg>