<svg xmlns="http://www.w3.org/2000/svg" viewBox="2 2 20 20">
  <path d="M13,2H11V5.8858L8.4574,3.3431L7.0431,4.7574L11,8.7142V11H8.7574L4.7574,7L3.3431,8.4142L5.9289,11H2V13H5.8858L3.3431,15.5426L4.7574,16.9569L8.7142,13H11V15.2858L7.0431,19.2426L8.4574,20.6569L11,18.1142V22H13V18.0711L15.5858,20.6569L17,19.2426L13,15.2426V13H15.2858L19.2426,16.9569L20.6569,15.5426L18.1142,13H22V11H18.0711L20.6569,8.4142L19.2426,7L15.2426,11H13V8.7574L17,4.7574L15.5858,3.3431L13,5.9289V2Z" fill="#000000"/>
</svg>