<svg xmlns="http://www.w3.org/2000/svg" viewBox="0 0 24 24">
  <path d="M11,0L11,3L13,3L13,0L11,0zM4.2227,2.8086L2.8086,4.2227L4.9297,6.3438L6.3438,4.9297L4.2227,2.8086zM19.7773,2.8086L17.6563,4.9297L19.0703,6.3438L21.1914,4.2227L19.7773,2.8086zM12,5C8.1459,5 5,8.1459 5,12C5,15.8541 8.1459,19 12,19C15.8541,19 19,15.8541 19,12C19,8.1459 15.8541,5 12,5zM12,7C14.7733,7 17,9.2267 17,12C17,14.7733 14.7733,17 12,17C9.2267,17 7,14.7733 7,12C7,9.2267 9.2267,7 12,7zM0,11L0,13L3,13L3,11L0,11zM21,11L21,13L24,13L24,11L21,11zM4.9297,17.6563L2.8086,19.7773L4.2227,21.1914L6.3438,19.0703L4.9297,17.6563zM19.0703,17.6563L17.6563,19.0703L19.7773,21.1914L21.1914,19.7773L19.0703,17.6563zM11,21L11,24L13,24L13,21L11,21z" fill="#000000"/>
</svg>